<?xml version="1.0" encoding="UTF-8"?>
<svg xmlns="http://www.w3.org/2000/svg" version="1.1" width="480" height="360" viewBox="0 0 480 360" style="shape-rendering:geometricPrecision; text-rendering:geometricPrecision; image-rendering:optimizeQuality; fill-rule:evenodd; clip-rule:evenodd" xmlns:xlink="http://www.w3.org/1999/xlink">
<g><path style="opacity:0.981" fill="#000000" d="M 229.5,60.5 C 278.592,58.8746 316.259,78.5412 342.5,119.5C 273.833,120.833 205.167,120.833 136.5,119.5C 157.915,84.756 188.915,65.0893 229.5,60.5 Z"/></g>
<g><path style="opacity:0.94" fill="#000000" d="M 75.5,126.5 C 184.834,126.333 294.167,126.5 403.5,127C 406,128.167 407.833,130 409,132.5C 409.667,162.833 409.667,193.167 409,223.5C 408.315,226.057 406.815,227.891 404.5,229C 294.833,229.667 185.167,229.667 75.5,229C 72.5719,227.74 70.7386,225.573 70,222.5C 69.3333,192.167 69.3333,161.833 70,131.5C 71.3516,129.251 73.1849,127.584 75.5,126.5 Z M 253.5,138.5 C 262.556,138.181 270.223,141.181 276.5,147.5C 274.229,151.274 271.396,154.607 268,157.5C 263.76,153.411 258.927,152.245 253.5,154C 250.663,157.489 250.996,160.656 254.5,163.5C 261.295,167.316 267.461,171.983 273,177.5C 280.415,188.368 280.082,199.035 272,209.5C 264.694,216.493 256.194,218.326 246.5,215C 241.782,213.105 237.782,210.272 234.5,206.5C 237.792,203.51 241.126,200.51 244.5,197.5C 249.596,202.689 255.262,203.522 261.5,200C 263.942,195.948 264.109,191.781 262,187.5C 256.431,182.965 250.597,178.799 244.5,175C 236.03,167.644 234.197,158.811 239,148.5C 242.6,143.29 247.434,139.957 253.5,138.5 Z M 85.5,140.5 C 95.6474,139.915 105.647,140.748 115.5,143C 129.658,150.198 136.991,161.865 137.5,178C 137.046,190.048 132.712,200.381 124.5,209C 120.065,212.368 115.065,214.368 109.5,215C 101.507,215.5 93.5069,215.666 85.5,215.5C 85.5,190.5 85.5,165.5 85.5,140.5 Z M 157.5,140.5 C 163.425,140.192 169.259,140.525 175,141.5C 183.068,165.87 191.235,190.204 199.5,214.5C 194.198,215.663 188.864,215.829 183.5,215C 181.704,211.24 180.038,207.407 178.5,203.5C 170.833,202.167 163.167,202.167 155.5,203.5C 154.059,207.323 152.726,211.157 151.5,215C 145.833,215.667 140.167,215.667 134.5,215C 142.072,190.119 149.738,165.286 157.5,140.5 Z M 191.5,140.5 C 204.85,140.167 218.183,140.501 231.5,141.5C 232.448,146.435 232.781,151.435 232.5,156.5C 228.833,156.5 225.167,156.5 221.5,156.5C 221.5,176.167 221.5,195.833 221.5,215.5C 215.833,215.5 210.167,215.5 204.5,215.5C 204.5,195.833 204.5,176.167 204.5,156.5C 200.167,156.5 195.833,156.5 191.5,156.5C 191.5,151.167 191.5,145.833 191.5,140.5 Z M 283.5,140.5 C 288.833,140.5 294.167,140.5 299.5,140.5C 299.333,157.503 299.5,174.503 300,191.5C 299.903,197.903 303.069,201.237 309.5,201.5C 315.21,200.087 318.044,196.421 318,190.5C 318.5,173.837 318.667,157.17 318.5,140.5C 323.833,140.5 329.167,140.5 334.5,140.5C 334.924,160.207 334.424,179.874 333,199.5C 327.242,212.965 317.075,218.465 302.5,216C 293.763,213.596 287.929,208.096 285,199.5C 283.562,179.88 283.062,160.213 283.5,140.5 Z M 340.5,140.5 C 344.846,140.334 349.179,140.501 353.5,141C 362,154.167 370.5,167.333 379,180.5C 379.5,179.5 380,178.5 380.5,177.5C 379.487,165.213 378.821,152.879 378.5,140.5C 383.833,140.5 389.167,140.5 394.5,140.5C 394.5,165.5 394.5,190.5 394.5,215.5C 390.154,215.666 385.821,215.499 381.5,215C 373.458,202.415 365.291,189.915 357,177.5C 356.5,190.162 356.333,202.829 356.5,215.5C 351.167,215.5 345.833,215.5 340.5,215.5C 340.5,190.5 340.5,165.5 340.5,140.5 Z"/></g>
<g><path style="opacity:0.934" fill="#000000" d="M 102.5,156.5 C 107.258,156.729 111.425,158.396 115,161.5C 120.304,171.362 120.638,181.362 116,191.5C 112.66,196.087 108.16,198.42 102.5,198.5C 102.5,184.5 102.5,170.5 102.5,156.5 Z"/></g>
<g><path style="opacity:0.833" fill="#000000" d="M 166.5,167.5 C 170.317,173.934 172.983,180.934 174.5,188.5C 169.833,188.5 165.167,188.5 160.5,188.5C 161.726,181.26 163.726,174.26 166.5,167.5 Z"/></g>
<g><path style="opacity:0.987" fill="#000000" d="M 134.5,236.5 C 204.332,235.335 274.332,235.168 344.5,236C 313.471,286.029 268.805,305.696 210.5,295C 177.057,285.806 151.724,266.306 134.5,236.5 Z"/></g>
</svg>
