<svg height="917" viewBox="197.48 22.99 323.85 69.32" width="2500" xmlns="http://www.w3.org/2000/svg"><path d="m249.01 64.28h27.8v13.52h-35.88c-10.88 0-18.67-8.9-18.67-19.78v-2.96c0-9.71 6.76-17.57 16.47-17.57h60.75v-14.5h-67.32c-19.15 0-34.68 15.52-34.68 34.68s15.51 34.63 34.64 34.63h68.41v-40.95h-51.52zm199.85-6.25v-2.96c0-9.71 6.77-17.57 16.47-17.57h55.85v-14.5h-62.41c-19.15 0-34.68 15.52-34.68 34.68s15.51 34.63 34.63 34.63h62.61v-14.5h-53.81c-10.88 0-18.68-8.9-18.68-19.78m-74.15-35.04h-22.09l-42.46 69.31h25.11l8.55-15.02h42.04l-7.69-13.52h-26.66l16-28.11 32.23 56.65h25.11l-42.46-69.31z" fill="#ed1c24"/></svg>