<svg viewBox="-0.47 -0.52 520.37 111.47" xmlns="http://www.w3.org/2000/svg" width="2500" height="538"><g fill="#231f20"><path d="M247.57 62.98h27.8V76.5h-35.88c-10.88 0-18.67-8.9-18.67-19.78v-2.96c0-9.71 6.76-17.57 16.47-17.57h60.75v-14.5h-67.32c-19.15 0-34.68 15.52-34.68 34.68S211.55 91 230.68 91h68.41V50.05h-51.52zM447.43 56.73v-2.96c0-9.71 6.77-17.57 16.47-17.57h55.85V21.7h-62.41c-19.15 0-34.68 15.52-34.68 34.68s15.51 34.63 34.63 34.63h62.61v-14.5h-53.81c-10.88 0-18.68-8.9-18.68-19.78M373.25 21.69h-22.08L308.7 91h25.11l8.56-15.03h42.03l-7.69-13.51h-26.66l16-28.11L398.28 91h25.11l-42.46-69.31zM81.31.23c13.5-.75 27.13.31 40.3 3.41 9.39 2.24 18.57 5.54 27.04 10.19 7.49 4.12 14.46 9.34 20.08 15.82 6.08 7.12 10.23 16.22 10.27 25.69.06 8.84-3.47 17.42-8.93 24.28-5.32 6.78-12.25 12.16-19.68 16.46-8.34 4.76-17.38 8.23-26.67 10.6-11.43 2.96-23.26 4.27-35.06 4.23-12.23-.08-24.48-1.62-36.27-4.94-10.46-2.98-20.61-7.29-29.59-13.48C16.09 87.83 10 82.08 5.72 75.07 1.71 68.52-.47 60.78.09 53.1c.5-7.7 3.68-15.05 8.32-21.15 5.2-6.88 12.06-12.34 19.44-16.72 8.51-5 17.81-8.57 27.35-11.03C63.74 2.01 72.5.7 81.31.23M56.34 14.48c-8.84 2.98-17.33 7.28-24.48 13.32-5.67 4.82-10.54 10.85-12.96 17.96-2.22 6.36-2.09 13.46.2 19.79 2.65 7.44 7.83 13.74 13.94 18.63 8.74 6.99 19.29 11.43 30.11 14.05 10.14 2.41 20.63 3.34 31.04 2.91 10.53-.56 21.18-2.58 30.64-7.38 3.99-2.06 7.77-4.67 10.71-8.09 2.37-2.78 4.12-6.22 4.36-9.91.24-3.54-1.39-7.06-4.07-9.35-2.94-2.54-6.73-3.85-10.46-4.73-6.7-1.5-13.59-1.77-20.43-1.85-4.69.02-9.38-.05-14.07.08-8.84 0-17.67-.01-26.51.05-3.04-.07-6.29.41-9.09-1.08-2.12-1.02-3.51-3.04-4.48-5.11-1.43-2.97-3.05-5.84-4.44-8.82 40.88-.03 81.75 0 122.63-.02 2.44-.03 4.89.09 7.33-.1-1.51-.64-3.11-1.06-4.68-1.52-3.41-1.01-6.81-2.04-10.21-3.04-1.6-.48-3.24-1.02-4.58-2.05-1.21-.92-2-2.24-2.94-3.4-2.92-3.69-6.4-6.91-10.19-9.7-6.7-4.9-14.34-8.4-22.25-10.86-11.04-3.42-22.65-4.88-34.19-4.74-10.49.01-20.98 1.68-30.94 4.97z"/></g></svg>