<?xml version="1.0" encoding="UTF-8"?>
<svg xmlns="http://www.w3.org/2000/svg" version="1.1" width="5000" height="4411" viewBox="0 0 5000 4411" style="shape-rendering:geometricPrecision; text-rendering:geometricPrecision; image-rendering:optimizeQuality; fill-rule:evenodd; clip-rule:evenodd" xmlns:xlink="http://www.w3.org/1999/xlink">
<g><path style="opacity:0.995" fill="#1b1917" d="M 2424.5,-0.5 C 2474.17,-0.5 2523.83,-0.5 2573.5,-0.5C 2573.83,0.833333 2574.17,0.833333 2574.5,-0.5C 2574.83,-0.5 2575.17,-0.5 2575.5,-0.5C 2811.56,5.24782 3043.56,39.4145 3271.5,102C 3450.47,151.332 3620.13,222.332 3780.5,315C 3874.59,370.412 3961.93,435.079 4042.5,509C 4109.6,571.907 4167.77,641.741 4217,718.5C 4276.6,812.961 4314.27,915.627 4330,1026.5C 4345.61,1158.21 4326.28,1284.55 4272,1405.5C 4239.7,1476.16 4199.37,1541.49 4151,1601.5C 4084.48,1682.36 4009.31,1753.86 3925.5,1816C 3788.58,1915.63 3640.24,1995.63 3480.5,2056C 3258.6,2139.12 3029.6,2191.78 2793.5,2214C 2498.07,2242.71 2204.41,2228.04 1912.5,2170C 1722.48,2131.99 1539.81,2071.99 1364.5,1990C 1228.85,1925.89 1104.19,1845.55 990.5,1749C 925.539,1691.77 867.373,1628.6 816,1559.5C 758.2,1479.56 715.533,1391.89 688,1296.5C 645.565,1133.59 658.565,975.26 727,821.5C 771.555,725.33 830.222,638.996 903,562.5C 991.7,471.071 1090.2,392.571 1198.5,327C 1339.07,243.061 1487.74,176.394 1644.5,127C 1866.64,57.5313 2093.97,16.5313 2326.5,4C 2359.59,2.28548 2392.26,0.785476 2424.5,-0.5 Z M 2441.5,71.5 C 2459.3,71.2039 2477.3,71.5372 2495.5,72.5C 2448.01,322.092 2400.85,571.759 2354,821.5C 2353.05,831.375 2349.22,839.875 2342.5,847C 2340.28,848.275 2337.95,849.275 2335.5,850C 2328.36,850.925 2321.2,851.425 2314,851.5C 1890.8,850.055 1466.3,848.888 1040.5,848C 1080.53,746.69 1136.37,655.523 1208,574.5C 1286.18,487.269 1374.34,412.435 1472.5,350C 1623.8,255.204 1786.13,185.204 1959.5,140C 2117.7,98.8046 2278.37,75.9713 2441.5,71.5 Z M 2503.5,71.5 C 2743.24,70.6805 2976.24,110.514 3202.5,191C 3342.37,241.258 3472.37,309.258 3592.5,395C 3676.22,455.38 3751.06,525.547 3817,605.5C 3876.78,678.5 3923.95,759.334 3958.5,848C 3532.8,848.889 3108.47,850.056 2685.5,851.5C 2678.14,851.435 2670.8,850.935 2663.5,850C 2656.43,847.928 2651.59,843.428 2649,836.5C 2647.2,831.625 2645.86,826.625 2645,821.5C 2598.02,571.444 2550.86,321.444 2503.5,71.5 Z M 1035.5,861.5 C 1423.78,942.722 1812.11,1023.89 2200.5,1105C 2212.68,1105.83 2222.85,1110.66 2231,1119.5C 2234.77,1125.49 2235.43,1131.83 2233,1138.5C 2075.71,1432.92 1918.54,1727.42 1761.5,2022C 1605,1963.29 1462.67,1881.29 1334.5,1776C 1247.16,1702.92 1172.99,1618.76 1112,1523.5C 1051.12,1426.2 1012.78,1320.54 997,1206.5C 982.509,1088.41 995.343,973.414 1035.5,861.5 Z M 3962.5,861.5 C 4007.48,984.276 4018.98,1110.28 3997,1239.5C 3978.12,1341.23 3941.45,1435.89 3887,1523.5C 3826.01,1618.76 3751.84,1702.92 3664.5,1776C 3536.33,1881.29 3394,1963.29 3237.5,2022C 3080.79,1728.09 2923.96,1434.25 2767,1140.5C 2763.42,1133.31 2763.75,1126.31 2768,1119.5C 2773.75,1112.88 2780.92,1108.71 2789.5,1107C 3180.7,1025.46 3571.7,943.628 3962.5,861.5 Z M 2496.5,1289.5 C 2500.41,1289.26 2504.08,1290.1 2507.5,1292C 2744.32,1537.66 2980.66,1783.83 3216.5,2030.5C 3049.48,2092.5 2877.15,2131.34 2699.5,2147C 2484.25,2166.84 2269.25,2154.5 2054.5,2110C 1961.79,2090.32 1871.13,2063.82 1782.5,2030.5C 2017.95,1784.21 2253.95,1538.38 2490.5,1293C 2492.43,1291.54 2494.43,1290.37 2496.5,1289.5 Z"/></g>
<g><path style="opacity:0.997" fill="#1b1917" d="M 4999.5,3358.5 C 4999.5,3365.5 4999.5,3372.5 4999.5,3379.5C 4997.37,3389.7 4993.54,3399.37 4988,3408.5C 4950.01,3457.54 4908.84,3504.04 4864.5,3548C 4745.38,3653.9 4607.38,3724.57 4450.5,3760C 4280.76,3798.97 4110.76,3801.64 3940.5,3768C 3796.49,3738.96 3665.82,3681.29 3548.5,3595C 3461.12,3529.3 3392.28,3448.14 3342,3351.5C 3301.07,3261.69 3286.41,3167.69 3298,3069.5C 3306.28,2994.99 3330.61,2926.32 3371,2863.5C 3434.82,2765.34 3516.66,2685.84 3616.5,2625C 3750.68,2545.27 3895.68,2497.27 4051.5,2481C 4209.25,2465.68 4364.25,2480.01 4516.5,2524C 4686.61,2575.24 4829.44,2667.74 4945,2801.5C 4957.39,2814.93 4966.72,2830.27 4973,2847.5C 4981.49,2876.67 4971.99,2897.51 4944.5,2910C 4932.9,2914.45 4920.9,2917.12 4908.5,2918C 4772.5,2918.67 4636.5,2918.67 4500.5,2918C 4492.03,2916.92 4484.36,2913.92 4477.5,2909C 4429.48,2859.34 4373.14,2822.01 4308.5,2797C 4200.03,2758.14 4094.7,2765.14 3992.5,2818C 3891.31,2876.8 3829.81,2963.97 3808,3079.5C 3792.46,3213.25 3835.62,3323.75 3937.5,3411C 4033.77,3486.15 4142.11,3511.81 4262.5,3488C 4332.52,3471.75 4392.69,3438.25 4443,3387.5C 4460.09,3366.41 4478.59,3346.58 4498.5,3328C 4507.84,3320 4518.51,3314.66 4530.5,3312C 4661.54,3311.5 4792.37,3311.34 4923,3311.5C 4942.64,3311.9 4961.14,3316.73 4978.5,3326C 4990.25,3333.89 4997.25,3344.72 4999.5,3358.5 Z"/></g>
<g><path style="opacity:0.997" fill="#1b1917" d="M -0.5,3379.5 C -0.5,3332.83 -0.5,3286.17 -0.5,3239.5C 111.874,3239.5 224.041,3239.5 336,3239.5C 354.868,3239.87 373.035,3243.71 390.5,3251C 406.567,3260.08 417.067,3273.58 422,3291.5C 423.976,3298.38 425.309,3305.38 426,3312.5C 427.111,3331.15 427.777,3349.81 428,3368.5C 433.063,3416.8 453.563,3456.96 489.5,3489C 507.984,3503.74 528.984,3512.74 552.5,3516C 663.833,3516.67 775.167,3516.67 886.5,3516C 919.786,3510.7 947.286,3495.2 969,3469.5C 993.471,3439.2 1007.47,3404.54 1011,3365.5C 1011.33,3124.83 1011.67,2884.17 1012,2643.5C 1012.9,2607.85 1023.9,2575.85 1045,2547.5C 1071.07,2519.36 1103.4,2505.36 1142,2505.5C 1240.86,2505.17 1339.86,2505.5 1439,2506.5C 1439.67,2795.83 1439.67,3085.17 1439,3374.5C 1431.61,3487.43 1387.44,3582.93 1306.5,3661C 1241.32,3720.75 1164.32,3753.75 1075.5,3760C 837.833,3760.67 600.167,3760.67 362.5,3760C 260.191,3751.93 174.691,3710.09 106,3634.5C 42.4858,3561.44 6.98577,3476.44 -0.5,3379.5 Z"/></g>
<g><path style="opacity:0.998" fill="#1b1917" d="M 2248.5,2505.5 C 2360.33,2505.5 2472.17,2505.5 2584,2505.5C 2626.42,2511.7 2659.76,2532.37 2684,2567.5C 2909.08,2944.67 3134.41,3321.67 3360,3698.5C 3368.51,3712.34 3370.51,3727.01 3366,3742.5C 3360.12,3752.7 3351.29,3758.53 3339.5,3760C 3230.17,3760.67 3120.83,3760.67 3011.5,3760C 2990.3,3756.39 2970.96,3748.39 2953.5,3736C 2943.35,3727.84 2933.85,3719.01 2925,3709.5C 2903.17,3675.84 2881.83,3641.84 2861,3607.5C 2851.3,3590.3 2838.47,3575.8 2822.5,3564C 2805.98,3555.12 2788.32,3550.79 2769.5,3551C 2583.17,3550.67 2396.83,3550.33 2210.5,3550C 2179.07,3545.3 2166.9,3527.47 2174,3496.5C 2175.33,3492.5 2176.67,3488.5 2178,3484.5C 2202.57,3439.68 2227.91,3395.34 2254,3351.5C 2277.65,3321.56 2308.49,3303.73 2346.5,3298C 2435.83,3297.67 2525.17,3297.33 2614.5,3297C 2625.5,3296.67 2635,3292.84 2643,3285.5C 2646.21,3279.89 2647.21,3273.89 2646,3267.5C 2644.45,3260.39 2641.78,3253.73 2638,3247.5C 2577,3149.17 2516,3050.83 2455,2952.5C 2434.34,2927.88 2411.17,2925.05 2385.5,2944C 2382.31,2946.88 2379.48,2950.05 2377,2953.5C 2224.33,3200.17 2071.67,3446.83 1919,3693.5C 1895.93,3729.45 1863.43,3751.62 1821.5,3760C 1712.17,3760.67 1602.83,3760.67 1493.5,3760C 1470.74,3755.9 1461.24,3742.4 1465,3719.5C 1466.82,3711.38 1469.82,3703.72 1474,3696.5C 1698.73,3321.43 1923.06,2946.1 2147,2570.5C 2171.36,2533.96 2205.19,2512.29 2248.5,2505.5 Z"/></g>
<g><path style="opacity:0.985" fill="#1b1917" d="M 4785.5,4067.5 C 4824.04,4065.63 4858.71,4076.13 4889.5,4099C 4911.71,4117.26 4922.04,4140.76 4920.5,4169.5C 4899.83,4169.5 4879.17,4169.5 4858.5,4169.5C 4861.08,4156.41 4857.42,4145.58 4847.5,4137C 4834.58,4128.18 4820.25,4123.52 4804.5,4123C 4792.38,4122.81 4780.05,4123.14 4767.5,4124C 4754.4,4124.64 4743.24,4129.47 4734,4138.5C 4724.44,4156.05 4727.94,4170.22 4744.5,4181C 4756.26,4187.21 4768.26,4192.88 4780.5,4198C 4813.65,4209.72 4845.98,4223.38 4877.5,4239C 4915.39,4258.29 4928.22,4288.46 4916,4329.5C 4904.36,4365.81 4880.19,4389.31 4843.5,4400C 4803.29,4408.83 4763.62,4406.83 4724.5,4394C 4683.37,4377.92 4664.37,4347.76 4667.5,4303.5C 4687.83,4303.5 4708.17,4303.5 4728.5,4303.5C 4728.7,4309.57 4729.2,4315.91 4730,4322.5C 4731.62,4326.9 4734.12,4330.73 4737.5,4334C 4751.55,4343.77 4767.22,4349.1 4784.5,4350C 4805.39,4353.16 4824.72,4349.16 4842.5,4338C 4855.17,4326.65 4860.34,4312.49 4858,4295.5C 4856.12,4290.57 4852.96,4286.74 4848.5,4284C 4837.65,4278.41 4826.65,4273.08 4815.5,4268C 4791.5,4258 4767.5,4248 4743.5,4238C 4725.19,4229.52 4707.85,4219.52 4691.5,4208C 4667.88,4186.26 4661.38,4160.1 4672,4129.5C 4682.75,4105.42 4700.58,4088.92 4725.5,4080C 4745.06,4073.06 4765.06,4068.89 4785.5,4067.5 Z"/></g>
<g><path style="opacity:0.988" fill="#1b1917" d="M 429.5,4410.5 C 410.833,4410.5 392.167,4410.5 373.5,4410.5C 373.667,4337.17 373.5,4263.83 373,4190.5C 333.333,4255.17 293.667,4319.83 254,4384.5C 214.082,4319.67 174.416,4254.67 135,4189.5C 134.5,4263.17 134.333,4336.83 134.5,4410.5C 115.833,4410.5 97.1667,4410.5 78.5,4410.5C 78.5,4298.17 78.5,4185.83 78.5,4073.5C 95.8461,4073.17 113.179,4073.5 130.5,4074.5C 171.667,4143.5 212.833,4212.5 254,4281.5C 295.585,4212.67 336.918,4143.67 378,4074.5C 395.09,4073.51 412.256,4073.17 429.5,4073.5C 429.5,4185.83 429.5,4298.17 429.5,4410.5 Z"/></g>
<g><path style="opacity:0.986" fill="#1b1917" d="M 1231.5,4410.5 C 1218.83,4410.5 1206.17,4410.5 1193.5,4410.5C 1109.54,4400.37 1063.37,4353.04 1055,4268.5C 1051.1,4232.23 1055.1,4196.9 1067,4162.5C 1086.98,4114.9 1122.48,4086.4 1173.5,4077C 1210.83,4069.94 1247.16,4073.27 1282.5,4087C 1331.33,4110.76 1360.16,4149.59 1369,4203.5C 1374.18,4236.55 1372.52,4269.55 1364,4302.5C 1342.73,4366.61 1298.56,4402.61 1231.5,4410.5 Z M 1200.5,4128.5 C 1254.73,4125.85 1291.23,4149.85 1310,4200.5C 1316.53,4225.66 1317.2,4251 1312,4276.5C 1297.87,4326.12 1265.04,4352.79 1213.5,4356.5C 1184.46,4356.64 1159.29,4346.64 1138,4326.5C 1123.68,4310.18 1115.01,4291.18 1112,4269.5C 1106.58,4237.56 1110.58,4206.89 1124,4177.5C 1141.28,4148.4 1166.78,4132.07 1200.5,4128.5 Z"/></g>
<g><path style="opacity:0.989" fill="#1b1917" d="M 2138.5,4410.5 C 2119.83,4410.5 2101.17,4410.5 2082.5,4410.5C 2082.5,4316.5 2082.5,4222.5 2082.5,4128.5C 2044.17,4128.5 2005.83,4128.5 1967.5,4128.5C 1967.5,4110.17 1967.5,4091.83 1967.5,4073.5C 2062.83,4073.5 2158.17,4073.5 2253.5,4073.5C 2253.83,4091.74 2253.49,4109.91 2252.5,4128C 2214.5,4128.5 2176.5,4128.67 2138.5,4128.5C 2138.5,4222.5 2138.5,4316.5 2138.5,4410.5 Z"/></g>
<g><path style="opacity:0.986" fill="#1b1917" d="M 3039.5,4410.5 C 3026.5,4410.5 3013.5,4410.5 3000.5,4410.5C 2962.79,4407.73 2930.29,4393.39 2903,4367.5C 2877.17,4336.7 2863.5,4301.03 2862,4260.5C 2858.95,4223.85 2864.28,4188.52 2878,4154.5C 2900.69,4109.38 2937.19,4083.21 2987.5,4076C 3029.89,4068.91 3069.89,4075.58 3107.5,4096C 3152.09,4125.98 3175.93,4168.15 3179,4222.5C 3183.88,4269.32 3173.54,4312.32 3148,4351.5C 3120.08,4386.21 3083.92,4405.88 3039.5,4410.5 Z M 3007.5,4128.5 C 3057.29,4125.13 3092.79,4145.8 3114,4190.5C 3125.02,4220.72 3126.36,4251.38 3118,4282.5C 3102.1,4329.03 3069.6,4353.7 3020.5,4356.5C 2956.94,4352.11 2922.78,4318.11 2918,4254.5C 2915.99,4229.6 2919.65,4205.6 2929,4182.5C 2945.64,4150.75 2971.81,4132.75 3007.5,4128.5 Z"/></g>
<g><path style="opacity:0.982" fill="#1b1917" d="M 4059.5,4410.5 C 4036.83,4410.5 4014.17,4410.5 3991.5,4410.5C 3959.54,4368.76 3927.2,4327.26 3894.5,4286C 3880.17,4285.5 3865.84,4285.33 3851.5,4285.5C 3851.5,4327.17 3851.5,4368.83 3851.5,4410.5C 3832.5,4410.5 3813.5,4410.5 3794.5,4410.5C 3794.33,4298.5 3794.5,4186.5 3795,4074.5C 3846.43,4073.34 3897.93,4073.17 3949.5,4074C 3992.1,4077.62 4022.26,4098.78 4040,4137.5C 4054.06,4176.05 4049.39,4212.05 4026,4245.5C 4009.07,4265.72 3987.57,4278.39 3961.5,4283.5C 3994.19,4325.85 4026.86,4368.19 4059.5,4410.5 Z M 3851.5,4128.5 C 3882.17,4128.33 3912.84,4128.5 3943.5,4129C 3978.36,4135.56 3993.52,4156.39 3989,4191.5C 3980.89,4215.59 3964.06,4228.42 3938.5,4230C 3909.5,4230.5 3880.5,4230.67 3851.5,4230.5C 3851.5,4196.5 3851.5,4162.5 3851.5,4128.5 Z"/></g>
</svg>
